<?xml version="1.0" encoding="iso-8859-1"?>
<!-- Uploaded to: SVG Repo, www.svgrepo.com, Generator: SVG Repo Mixer Tools -->
<svg fill="#000000" height="800px" width="800px" version="1.1" id="Layer_1" xmlns="http://www.w3.org/2000/svg" xmlns:xlink="http://www.w3.org/1999/xlink" 
	 viewBox="0 0 512.001 512.001" xml:space="preserve">
<g>
	<g>
		<path d="M253.357,169.625L14.647,405.363c-19.53,19.53-19.53,51.345,0,70.874c19.53,19.53,51.346,19.53,70.875,0l236.839-233.869
			C308.988,224.834,306.87,223.047,253.357,169.625z"/>
	</g>
</g>
<g>
	<g>
		<path d="M449.702,118.16c-0.432-0.597-0.882-1.198-1.331-1.8l5.776-5.776c19.531-19.531,19.53-51.346,0-70.875
			c-19.53-19.53-51.345-19.531-70.874,0l-3.827,3.827c-18.339-18.305-34.018-33.789-35.549-35.321
			c-6.525-6.525-17.097-6.525-23.623,0l-78.748,78.741c-3.132,3.133-4.894,7.385-4.894,11.811c0,4.427,1.762,8.679,4.894,11.811
			l91.26,91.27c0.566,1.055,1.262,2.066,2.088,3.001c3.507,3.937,6.868,8.059,10.224,12.159
			c60.818,76.599,84.315,175.603,64.424,271.572c-1.545,7.461,2.148,15.019,8.989,18.38c2.349,1.164,4.867,1.718,7.363,1.718
			c4.753,0,9.424-2.034,12.682-5.819C532.104,393.929,536.797,232.138,449.702,118.16z"/>
	</g>
</g>
</svg>